<?xml version="1.0" encoding="UTF-8"?>
<svg width="555px" height="92px" viewBox="0 0 555 92" version="1.1" xmlns="http://www.w3.org/2000/svg" xmlns:xlink="http://www.w3.org/1999/xlink">
    <!-- Generator: Sketch 51.1 (57501) - http://www.bohemiancoding.com/sketch -->
    <title>Group 2</title>
    <desc>Created with Sketch.</desc>
    <defs></defs>
    <g id="Page-1" stroke="none" stroke-width="1" fill="none" fill-rule="evenodd">
        <g id="Group-2" transform="translate(-1.000000, 0.000000)">
            <g id="icon-text" transform="translate(269.000000, 0.000000)" fill-rule="nonzero">
                <g id="embroidery" fill="#000000">
                    <path d="M49.3703704,13.2542766 L49.3703704,3.17241379 L36.6296296,3.17241379 L36.6296296,13.2527277 C40.8482892,12.5122913 45.1517108,12.5122913 49.3703704,13.2542766 Z" id="Shape"></path>
                    <polygon id="Shape" points="55.7407407 14.996161 55.7407407 0 52.5555556 0 52.5555556 15.862069 55.7407407 15.862069"></polygon>
                    <polygon id="Shape" points="58.9259259 3.17241379 62.1111111 3.17241379 62.1111111 9.51724138 58.9259259 9.51724138"></polygon>
                    <polygon id="Shape" points="33.4444444 13.9335265 33.4444444 0 30.2592593 0 30.2592593 15.862069 33.4444444 15.862069"></polygon>
                    <polygon id="Shape" points="65.2962963 3.17241379 68.4814815 3.17241379 68.4814815 9.51724138 65.2962963 9.51724138"></polygon>
                    <polygon id="Shape" points="17.5185185 3.17241379 20.7037037 3.17241379 20.7037037 9.51724138 17.5185185 9.51724138"></polygon>
                    <path d="M66.074707,12.6896552 L58.9259259,12.6896552 L58.9259259,16.3461408 C71.5298032,22.4229863 79.6296296,35.1823477 79.6296296,49.1724138 C79.6296296,69.2904432 63.1990199,85.6551724 43,85.6551724 C22.8009801,85.6551724 6.37037037,69.2904432 6.37037037,49.1724138 C6.37037037,35.1823477 14.4701968,22.4229863 27.0740741,16.3461408 L27.0740741,12.6896552 L19.925293,12.6896552 C7.62702546,20.5858365 0,34.5178139 0,49.1724138 C0,72.7881533 19.289189,92 43,92 C66.710811,92 86,72.7881533 86,49.1724138 C86,34.5178139 78.3729745,20.5858365 66.074707,12.6896552 Z" id="Shape"></path>
                    <polygon id="Shape" points="23.8888889 3.17241379 27.0740741 3.17241379 27.0740741 9.51724138 23.8888889 9.51724138"></polygon>
                </g>
                <g id="needle" transform="translate(8.000000, 21.000000)">
                    <g id="Group" transform="translate(16.883562, 0.000000)" fill="#F44336">
                        <path d="M9.67471667,27.7804172 C9.41416537,27.7804172 9.16061328,27.6957349 8.9522174,27.5392593 C8.59582207,27.2763938 0.041430817,20.8533177 0.041430817,12.1027797 C0.041430817,4.43762183 4.85813019,0.042962963 13.287213,0.042962963 C19.3309193,-0.259473684 25.3471932,1.04094737 30.7283451,3.8128499 C31.3066832,4.14162963 31.5095475,4.87765302 31.1812619,5.45697466 C30.8580563,6.02725146 30.1390567,6.23449123 29.5627506,5.92334893 C24.534946,3.35823392 18.9221428,2.16205458 13.287213,2.45488109 C8.34294732,2.45488109 2.44972406,4.12874074 2.44972406,12.1026667 C2.44972406,19.6231072 10.3128867,25.5445341 10.3972159,25.6096569 C10.9292689,26.0093255 11.0370793,26.7652476 10.6380114,27.2979883 C10.410537,27.6016686 10.0536901,27.7804172 9.67471667,27.7804172 Z" id="Shape"></path>
                        <path d="M10.8788068,57.9299025 C10.2137688,57.9299025 9.67460377,57.3899259 9.67460377,56.7238869 C9.67460377,56.057848 10.2137688,55.5178713 10.8788068,55.5178713 C24.1944682,55.5178713 28.9412884,49.9124483 28.9412884,44.6640702 C28.9412884,40.816963 22.3905908,36.6852827 17.6076457,33.6704133 C16.1770971,32.7683041 14.8500692,31.9289435 13.7904789,31.174039 C13.2491689,30.7863548 13.1240862,30.032694 13.5110748,29.4904561 C13.8980635,28.9482183 14.6507045,28.8230604 15.1921274,29.2106316 C16.2180764,29.9342183 17.5041251,30.7567329 18.8913236,31.6225497 C24.4426016,35.1296842 31.3496945,39.4856764 31.3496945,44.6640702 C31.3496945,50.7832398 25.9862664,57.9299025 10.8788068,57.9299025 Z" id="Shape"></path>
                    </g>
                    <path d="M56.3909196,1.40730091 C54.4982381,-0.475891652 51.4372946,-0.468100533 49.5542103,1.4248027 C49.5487907,1.43022261 49.543484,1.43564252 49.5380644,1.44106243 L0.306440536,55.7942816 C-0.136837377,56.2902032 -0.0941580466,57.0515875 0.401735126,57.4948909 C0.85878785,57.9035295 1.54989944,57.9035295 2.00706507,57.4948909 L56.3909196,8.2194491 C58.2715199,6.33817608 58.2715199,3.28857393 56.3909196,1.40730091 Z" id="Shape" fill="#CFD8DC"></path>
                    <path d="M49.4571796,9.53424446 C48.8011239,9.53546943 48.2683502,9.00450236 48.2671251,8.3484774 C48.2665683,8.03221346 48.3921889,7.72875599 48.6161454,7.50536674 L50.991911,5.12971229 C51.447731,4.65787767 52.1996726,4.64484848 52.6716406,5.10053582 C53.1434973,5.55633452 53.1565271,6.30824091 52.7008184,6.78018689 C52.691241,6.79009797 52.6815522,6.79978634 52.6716406,6.80936335 L50.295875,9.1850178 C50.073589,9.4079616 49.7720105,9.5335763 49.4571796,9.53424446 Z" id="Shape" fill="#455A64"></path>
                    <path d="M49.5457601,28.9980104 C48.8787373,29.0359037 48.3071652,28.5279535 48.2691208,27.8635808 C48.2310764,27.1992081 48.7410527,26.6299069 49.4080756,26.5920136 C53.5072485,26.1252272 55.5845191,23.2886456 55.5845191,18.1712503 C55.5845191,15.3900424 53.5651077,11.8461198 49.8983504,8.19629909 C49.4349105,7.7184605 49.4481581,6.95687352 49.928016,6.4952749 C50.3960982,6.04495403 51.1380776,6.04495403 51.6061598,6.4952749 C55.7898004,10.6599253 58,14.6970242 58,18.1712503 C58,24.5277328 55.0457829,28.3675838 49.6858225,28.9978977 L49.5457601,28.9978977 L49.5457601,28.9980104 Z" id="Shape" fill="#F44336"></path>
                    <path d="M1.20698034,58 C0.540033504,57.9996604 -0.000339483591,57.4588026 1.60020816e-07,56.7918428 C0.000113374558,56.4920958 0.111856123,56.2031025 0.313264785,55.9811222 L49.678426,1.49168286 C51.5222379,-0.436070974 54.5800494,-0.504329081 56.5080929,1.33920579 C58.4361365,3.18274067 58.5044049,6.24009259 56.6605929,8.16784642 C56.6242511,8.20576759 56.5873431,8.24312278 56.5498691,8.27991197 L2.01850215,57.6859901 C1.79637523,57.8878213 1.50699887,57.9997736 1.20698034,58 Z M53.1346394,2.45771053 C52.4940715,2.45782372 51.8798827,2.71240496 51.4270245,3.16530825 L18.5362767,39.4657166 L54.8857286,6.53882086 C55.8061628,5.57347237 55.7695945,4.04485301 54.8041009,3.12467034 C54.3541864,2.69587812 53.7561872,2.45691814 53.1346394,2.45771053 Z" id="Shape" fill="#000000"></path>
                    <path d="M49.4571796,9.53424446 C48.8011239,9.53546943 48.2683502,9.00450236 48.2671251,8.3484774 C48.2665683,8.03221346 48.3921889,7.72875599 48.6161454,7.50536674 L50.991911,5.12971229 C51.447731,4.65787767 52.1996726,4.64484848 52.6716406,5.10053582 C53.1434973,5.55633452 53.1565271,6.30824091 52.7008184,6.78018689 C52.691241,6.79009797 52.6815522,6.79978634 52.6716406,6.80936335 L50.295875,9.1850178 C50.073589,9.4079616 49.7720105,9.5335763 49.4571796,9.53424446 Z" id="Shape" fill="#000000"></path>
                    <path d="M26.5363939,27.8082192 C26.2753139,27.8082192 26.0212473,27.723452 25.8124286,27.5668195 C25.4553101,27.3036904 16.8835616,20.8741741 16.8835616,12.1148621 C16.8835616,4.44201845 21.7100343,0.0429531358 30.1562201,0.0429531358 C36.2121894,-0.259786759 42.2406706,1.0419382 47.6327411,3.81662007 C48.2193792,4.13294082 48.4386049,4.86506209 48.1224357,5.45198138 C47.8062665,6.03890066 47.074496,6.25823147 46.4878579,5.94191072 C46.4801658,5.93772329 46.4723606,5.93342269 46.4647815,5.92912209 C41.4267753,3.36154825 35.8025834,2.16416953 30.1562201,2.45728965 C25.2019223,2.45728965 19.2967414,4.13282765 19.2967414,12.1147489 C19.2967414,19.64273 27.1758588,25.5700943 27.2603591,25.6352824 C27.7934916,26.0353517 27.9015208,26.7920317 27.5016432,27.3253066 C27.2737072,27.6292914 26.9161363,27.8082192 26.5363939,27.8082192 Z" id="Shape" fill="#000000"></path>
                    <path d="M49.5457601,28.9980104 C48.8787373,29.0359037 48.3071652,28.5279535 48.2691208,27.8635808 C48.2310764,27.1992081 48.7410527,26.6299069 49.4080756,26.5920136 C53.5072485,26.1252272 55.5845191,23.2886456 55.5845191,18.1712503 C55.5845191,15.3900424 53.5651077,11.8461198 49.8983504,8.19629909 C49.4349105,7.7184605 49.4481581,6.95687352 49.928016,6.4952749 C50.3960982,6.04495403 51.1380776,6.04495403 51.6061598,6.4952749 C55.7898004,10.6599253 58,14.6970242 58,18.1712503 C58,24.5277328 55.0457829,28.3675838 49.6858225,28.9978977 L49.5457601,28.9978977 L49.5457601,28.9980104 Z" id="Shape" fill="#000000"></path>
                    <path d="M27.8192855,58 C27.1549963,58 26.6164384,57.4589871 26.6164384,56.7916699 C26.6164384,56.1243527 27.1549963,55.5833399 27.8192855,55.5833399 C41.1199537,55.5833399 45.861429,49.9671594 45.861429,44.708709 C45.861429,40.8542188 39.3181074,36.7146093 34.5405478,33.693954 C33.11161,32.7901136 31.7860763,31.9491422 30.727679,31.1927889 C30.1869785,30.8043607 30.0620367,30.0492535 30.4485896,29.5059751 C30.8351426,28.9626967 31.5869361,28.8372986 32.1277494,29.2256135 C33.1525431,29.9505889 34.4371437,30.774682 35.8227804,31.6421604 C41.3678076,35.1560255 48.2671233,39.5203773 48.2671233,44.708709 C48.2671233,50.839622 42.9097343,58 27.8192855,58 Z" id="Shape" fill="#000000"></path>
                </g>
            </g>
            <text id="Crossed" font-family="HelveticaNeue-UltraLight, Helvetica Neue" font-size="78" font-weight="200" fill="#000000">
                <tspan x="0.386" y="73">Crossed</tspan>
            </text>
            <text id="titches" font-family="HelveticaNeue-UltraLight, Helvetica Neue" font-size="78" font-weight="200" fill="#000000">
                <tspan x="358.075" y="73">titches</tspan>
            </text>
        </g>
    </g>
</svg>